<?xml version="1.0" encoding="UTF-8" standalone="no"?>
<!DOCTYPE svg PUBLIC "-//W3C//DTD SVG 1.1//EN"
 "http://www.w3.org/Graphics/SVG/1.1/DTD/svg11.dtd">
<!-- Generated by graphviz version 5.0.0 (20220707.1540)
 -->
<!-- Title: dependencies Pages: 1 -->
<svg width="647pt" height="174pt"
 viewBox="0.00 0.00 647.00 173.80" xmlns="http://www.w3.org/2000/svg" xmlns:xlink="http://www.w3.org/1999/xlink">
<g id="graph0" class="graph" transform="scale(1 1) rotate(0) translate(4 169.8)">
<title>dependencies</title>
<polygon fill="white" stroke="transparent" points="-4,4 -4,-169.8 643,-169.8 643,4 -4,4"/>
<text text-anchor="middle" x="319.5" y="-8.2" font-family="sans-serif" font-size="14.00">dependencies</text>
<g id="clust1" class="cluster">
<title>cluster_AppModule</title>
<polygon fill="none" stroke="black" stroke-dasharray="1,5" points="8,-32.8 8,-157.8 631,-157.8 631,-32.8 8,-32.8"/>
</g>
<g id="clust3" class="cluster">
<title>cluster_AppModule_imports</title>
<polygon fill="none" stroke="black" points="305,-40.8 305,-92.8 623,-92.8 623,-40.8 305,-40.8"/>
</g>
<g id="clust6" class="cluster">
<title>cluster_AppModule_providers</title>
<polygon fill="none" stroke="black" points="16,-40.8 16,-92.8 297,-92.8 297,-40.8 16,-40.8"/>
</g>
<!-- AuthModule -->
<g id="node1" class="node">
<title>AuthModule</title>
<polygon fill="#8dd3c7" stroke="black" points="614.55,-84.8 611.55,-88.8 590.55,-88.8 587.55,-84.8 527.45,-84.8 527.45,-48.8 614.55,-48.8 614.55,-84.8"/>
<text text-anchor="middle" x="571" y="-62.6" font-family="Times,serif" font-size="14.00">AuthModule</text>
</g>
<!-- AppModule -->
<g id="node4" class="node">
<title>AppModule</title>
<polygon fill="#8dd3c7" stroke="black" points="400.66,-149.8 397.66,-153.8 376.66,-153.8 373.66,-149.8 317.34,-149.8 317.34,-113.8 400.66,-113.8 400.66,-149.8"/>
<text text-anchor="middle" x="359" y="-127.6" font-family="Times,serif" font-size="14.00">AppModule</text>
</g>
<!-- AuthModule&#45;&gt;AppModule -->
<g id="edge1" class="edge">
<title>AuthModule&#45;&gt;AppModule</title>
<path fill="none" stroke="black" d="M571,-85.08C571,-106.12 571,-137.8 571,-137.8 571,-137.8 410.88,-137.8 410.88,-137.8"/>
<polygon fill="black" stroke="black" points="410.88,-134.3 400.88,-137.8 410.88,-141.3 410.88,-134.3"/>
</g>
<!-- TaskModule -->
<g id="node2" class="node">
<title>TaskModule</title>
<polygon fill="#8dd3c7" stroke="black" points="509.27,-84.8 506.27,-88.8 485.27,-88.8 482.27,-84.8 422.73,-84.8 422.73,-48.8 509.27,-48.8 509.27,-84.8"/>
<text text-anchor="middle" x="466" y="-62.6" font-family="Times,serif" font-size="14.00">TaskModule</text>
</g>
<!-- TaskModule&#45;&gt;AppModule -->
<g id="edge2" class="edge">
<title>TaskModule&#45;&gt;AppModule</title>
<path fill="none" stroke="black" d="M466,-84.82C466,-102.17 466,-125.8 466,-125.8 466,-125.8 410.68,-125.8 410.68,-125.8"/>
<polygon fill="black" stroke="black" points="410.68,-122.3 400.68,-125.8 410.68,-129.3 410.68,-122.3"/>
</g>
<!-- UsersModule -->
<g id="node3" class="node">
<title>UsersModule</title>
<polygon fill="#8dd3c7" stroke="black" points="404.94,-84.8 401.94,-88.8 380.94,-88.8 377.94,-84.8 313.06,-84.8 313.06,-48.8 404.94,-48.8 404.94,-84.8"/>
<text text-anchor="middle" x="359" y="-62.6" font-family="Times,serif" font-size="14.00">UsersModule</text>
</g>
<!-- UsersModule&#45;&gt;AppModule -->
<g id="edge3" class="edge">
<title>UsersModule&#45;&gt;AppModule</title>
<path fill="none" stroke="black" d="M359,-84.91C359,-84.91 359,-103.79 359,-103.79"/>
<polygon fill="black" stroke="black" points="355.5,-103.79 359,-113.79 362.5,-103.79 355.5,-103.79"/>
</g>
<!-- AppService -->
<g id="node5" class="node">
<title>AppService</title>
<ellipse fill="#fdb462" stroke="black" cx="232" cy="-66.8" rx="56.75" ry="18"/>
<text text-anchor="middle" x="232" y="-62.6" font-family="Times,serif" font-size="14.00">AppService</text>
</g>
<!-- AppService&#45;&gt;AppModule -->
<g id="edge4" class="edge">
<title>AppService&#45;&gt;AppModule</title>
<path fill="none" stroke="black" d="M232,-84.82C232,-102.17 232,-125.8 232,-125.8 232,-125.8 307.06,-125.8 307.06,-125.8"/>
<polygon fill="black" stroke="black" points="307.06,-129.3 317.06,-125.8 307.06,-122.3 307.06,-129.3"/>
</g>
<!-- PrismaService -->
<g id="node6" class="node">
<title>PrismaService</title>
<ellipse fill="#fdb462" stroke="black" cx="91" cy="-66.8" rx="66.64" ry="18"/>
<text text-anchor="middle" x="91" y="-62.6" font-family="Times,serif" font-size="14.00">PrismaService</text>
</g>
<!-- PrismaService&#45;&gt;AppModule -->
<g id="edge5" class="edge">
<title>PrismaService&#45;&gt;AppModule</title>
<path fill="none" stroke="black" d="M91,-85.08C91,-106.12 91,-137.8 91,-137.8 91,-137.8 307.12,-137.8 307.12,-137.8"/>
<polygon fill="black" stroke="black" points="307.13,-141.3 317.12,-137.8 307.12,-134.3 307.13,-141.3"/>
</g>
</g>
</svg>
