<?xml version="1.0" encoding="UTF-8" standalone="no"?>
<!DOCTYPE svg PUBLIC "-//W3C//DTD SVG 1.1//EN"
 "http://www.w3.org/Graphics/SVG/1.1/DTD/svg11.dtd">
<!-- Generated by graphviz version 5.0.0 (20220707.1540)
 -->
<!-- Title: dependencies Pages: 1 -->
<svg width="1368pt" height="307pt"
 viewBox="0.00 0.00 1368.00 306.80" xmlns="http://www.w3.org/2000/svg" xmlns:xlink="http://www.w3.org/1999/xlink">
<g id="graph0" class="graph" transform="scale(1 1) rotate(0) translate(4 302.8)">
<title>dependencies</title>
<polygon fill="white" stroke="transparent" points="-4,4 -4,-302.8 1364,-302.8 1364,4 -4,4"/>
<text text-anchor="middle" x="680" y="-8.2" font-family="sans-serif" font-size="14.00">dependencies</text>
<g id="clust1" class="cluster">
<title>cluster_AppModule</title>
<polygon fill="none" stroke="black" stroke-dasharray="1,5" points="142,-32.8 142,-290.8 439,-290.8 439,-32.8 142,-32.8"/>
</g>
<g id="clust3" class="cluster">
<title>cluster_AppModule_imports</title>
<polygon fill="none" stroke="black" points="207,-108.8 207,-225.8 419,-225.8 419,-108.8 207,-108.8"/>
</g>
<g id="clust6" class="cluster">
<title>cluster_AppModule_providers</title>
<polygon fill="none" stroke="black" points="150,-40.8 150,-92.8 431,-92.8 431,-40.8 150,-40.8"/>
</g>
<g id="clust7" class="cluster">
<title>cluster_AuthModule</title>
<polygon fill="none" stroke="black" stroke-dasharray="1,5" points="779,-32.8 779,-100.8 1352,-100.8 1352,-32.8 779,-32.8"/>
</g>
<g id="clust12" class="cluster">
<title>cluster_AuthModule_providers</title>
<polygon fill="none" stroke="black" points="787,-40.8 787,-92.8 1344,-92.8 1344,-40.8 787,-40.8"/>
</g>
<g id="clust13" class="cluster">
<title>cluster_TaskModule</title>
<polygon fill="none" stroke="black" stroke-dasharray="1,5" points="447,-32.8 447,-100.8 771,-100.8 771,-32.8 447,-32.8"/>
</g>
<g id="clust18" class="cluster">
<title>cluster_TaskModule_providers</title>
<polygon fill="none" stroke="black" points="455,-40.8 455,-92.8 763,-92.8 763,-40.8 455,-40.8"/>
</g>
<g id="clust19" class="cluster">
<title>cluster_UsersModule</title>
<polygon fill="none" stroke="black" stroke-dasharray="1,5" points="8,-165.8 8,-233.8 134,-233.8 134,-165.8 8,-165.8"/>
</g>
<g id="clust22" class="cluster">
<title>cluster_UsersModule_exports</title>
<polygon fill="none" stroke="black" points="16,-173.8 16,-225.8 126,-225.8 126,-173.8 16,-173.8"/>
</g>
<!-- AuthModule -->
<g id="node1" class="node">
<title>AuthModule</title>
<polygon fill="#8dd3c7" stroke="black" points="410.55,-217.8 407.55,-221.8 386.55,-221.8 383.55,-217.8 323.45,-217.8 323.45,-181.8 410.55,-181.8 410.55,-217.8"/>
<text text-anchor="middle" x="367" y="-195.6" font-family="Times,serif" font-size="14.00">AuthModule</text>
</g>
<!-- AppModule -->
<g id="node4" class="node">
<title>AppModule</title>
<polygon fill="#8dd3c7" stroke="black" points="299.66,-282.8 296.66,-286.8 275.66,-286.8 272.66,-282.8 216.34,-282.8 216.34,-246.8 299.66,-246.8 299.66,-282.8"/>
<text text-anchor="middle" x="258" y="-260.6" font-family="Times,serif" font-size="14.00">AppModule</text>
</g>
<!-- AuthModule&#45;&gt;AppModule -->
<g id="edge1" class="edge">
<title>AuthModule&#45;&gt;AppModule</title>
<path fill="none" stroke="black" d="M323.37,-205.8C298.38,-205.8 271.94,-205.8 271.94,-205.8 271.94,-205.8 271.94,-236.78 271.94,-236.78"/>
<polygon fill="black" stroke="black" points="268.44,-236.78 271.94,-246.78 275.44,-236.78 268.44,-236.78"/>
</g>
<!-- TaskModule -->
<g id="node2" class="node">
<title>TaskModule</title>
<polygon fill="#8dd3c7" stroke="black" points="301.27,-152.8 298.27,-156.8 277.27,-156.8 274.27,-152.8 214.73,-152.8 214.73,-116.8 301.27,-116.8 301.27,-152.8"/>
<text text-anchor="middle" x="258" y="-130.6" font-family="Times,serif" font-size="14.00">TaskModule</text>
</g>
<!-- TaskModule&#45;&gt;AppModule -->
<g id="edge2" class="edge">
<title>TaskModule&#45;&gt;AppModule</title>
<path fill="none" stroke="black" d="M244.06,-152.88C244.06,-152.88 244.06,-236.46 244.06,-236.46"/>
<polygon fill="black" stroke="black" points="240.56,-236.46 244.06,-246.46 247.56,-236.46 240.56,-236.46"/>
</g>
<!-- UsersModule -->
<g id="node3" class="node">
<title>UsersModule</title>
<polygon fill="#8dd3c7" stroke="black" points="410.94,-152.8 407.94,-156.8 386.94,-156.8 383.94,-152.8 319.06,-152.8 319.06,-116.8 410.94,-116.8 410.94,-152.8"/>
<text text-anchor="middle" x="365" y="-130.6" font-family="Times,serif" font-size="14.00">UsersModule</text>
</g>
<!-- UsersModule&#45;&gt;AuthModule -->
<g id="edge6" class="edge">
<title>UsersModule&#45;&gt;AuthModule</title>
<path fill="none" stroke="black" d="M366.97,-152.91C366.97,-152.91 366.97,-171.79 366.97,-171.79"/>
<polygon fill="black" stroke="black" points="363.47,-171.79 366.97,-181.79 370.47,-171.79 363.47,-171.79"/>
</g>
<!-- UsersModule&#45;&gt;AppModule -->
<g id="edge3" class="edge">
<title>UsersModule&#45;&gt;AppModule</title>
<path fill="none" stroke="black" d="M319.09,-140.8C316.43,-140.8 314.81,-140.8 314.81,-140.8 314.81,-140.8 314.81,-270.8 314.81,-270.8 314.81,-270.8 309.88,-270.8 309.88,-270.8"/>
<polygon fill="black" stroke="black" points="309.88,-267.3 299.88,-270.8 309.88,-274.3 309.88,-267.3"/>
</g>
<!-- UsersService  -->
<g id="node13" class="node">
<title>UsersService </title>
<polygon fill="#fb8072" stroke="black" points="117.86,-217.8 24.14,-217.8 24.14,-181.8 117.86,-181.8 117.86,-217.8"/>
<text text-anchor="middle" x="71" y="-195.6" font-family="Times,serif" font-size="14.00">UsersService </text>
</g>
<!-- UsersModule&#45;&gt;UsersService  -->
<g id="edge15" class="edge">
<title>UsersModule&#45;&gt;UsersService </title>
<path fill="none" stroke="black" stroke-dasharray="5,2" d="M319.28,-128.8C311.49,-128.8 305.86,-128.8 305.86,-128.8 305.86,-128.8 305.86,-193.8 305.86,-193.8 305.86,-193.8 127.96,-193.8 127.96,-193.8"/>
<polygon fill="black" stroke="black" points="127.96,-190.3 117.96,-193.8 127.96,-197.3 127.96,-190.3"/>
</g>
<!-- AppService -->
<g id="node5" class="node">
<title>AppService</title>
<ellipse fill="#fdb462" stroke="black" cx="215" cy="-66.8" rx="56.75" ry="18"/>
<text text-anchor="middle" x="215" y="-62.6" font-family="Times,serif" font-size="14.00">AppService</text>
</g>
<!-- AppService&#45;&gt;AppModule -->
<g id="edge4" class="edge">
<title>AppService&#45;&gt;AppModule</title>
<path fill="none" stroke="black" d="M186.5,-82.67C186.5,-129.65 186.5,-264.8 186.5,-264.8 186.5,-264.8 205.99,-264.8 205.99,-264.8"/>
<polygon fill="black" stroke="black" points="205.99,-268.3 215.99,-264.8 205.99,-261.3 205.99,-268.3"/>
</g>
<!-- PrismaService -->
<g id="node6" class="node">
<title>PrismaService</title>
<ellipse fill="#fdb462" stroke="black" cx="356" cy="-66.8" rx="66.64" ry="18"/>
<text text-anchor="middle" x="356" y="-62.6" font-family="Times,serif" font-size="14.00">PrismaService</text>
</g>
<!-- PrismaService&#45;&gt;AuthModule -->
<g id="edge10" class="edge">
<title>PrismaService&#45;&gt;AuthModule</title>
<path fill="none" stroke="black" d="M416.8,-74.37C416.8,-100.86 416.8,-187.8 416.8,-187.8 416.8,-187.8 416.19,-187.8 416.19,-187.8"/>
<polygon fill="black" stroke="black" points="420.69,-184.3 410.69,-187.8 420.69,-191.3 420.69,-184.3"/>
</g>
<!-- PrismaService&#45;&gt;TaskModule -->
<g id="edge13" class="edge">
<title>PrismaService&#45;&gt;TaskModule</title>
<path fill="none" stroke="black" d="M292.23,-72.6C292.23,-72.6 292.23,-106.59 292.23,-106.59"/>
<polygon fill="black" stroke="black" points="288.73,-106.59 292.23,-116.59 295.73,-106.59 288.73,-106.59"/>
</g>
<!-- PrismaService&#45;&gt;UsersModule -->
<g id="edge16" class="edge">
<title>PrismaService&#45;&gt;UsersModule</title>
<path fill="none" stroke="black" d="M365,-84.67C365,-84.67 365,-106.34 365,-106.34"/>
<polygon fill="black" stroke="black" points="361.5,-106.34 365,-116.34 368.5,-106.34 361.5,-106.34"/>
</g>
<!-- PrismaService&#45;&gt;AppModule -->
<g id="edge5" class="edge">
<title>PrismaService&#45;&gt;AppModule</title>
<path fill="none" stroke="black" d="M310.33,-80C310.33,-123.38 310.33,-258.8 310.33,-258.8 310.33,-258.8 309.27,-258.8 309.27,-258.8"/>
<polygon fill="black" stroke="black" points="309.74,-255.3 299.74,-258.8 309.74,-262.3 309.74,-255.3"/>
</g>
<!-- AuthService -->
<g id="node7" class="node">
<title>AuthService</title>
<ellipse fill="#fdb462" stroke="black" cx="1277" cy="-66.8" rx="59.11" ry="18"/>
<text text-anchor="middle" x="1277" y="-62.6" font-family="Times,serif" font-size="14.00">AuthService</text>
</g>
<!-- AuthService&#45;&gt;AuthModule -->
<g id="edge7" class="edge">
<title>AuthService&#45;&gt;AuthModule</title>
<path fill="none" stroke="black" d="M1277,-84.87C1277,-123.74 1277,-211.8 1277,-211.8 1277,-211.8 420.58,-211.8 420.58,-211.8"/>
<polygon fill="black" stroke="black" points="420.58,-208.3 410.58,-211.8 420.58,-215.3 420.58,-208.3"/>
</g>
<!-- JwtStrategy -->
<g id="node8" class="node">
<title>JwtStrategy</title>
<ellipse fill="#fdb462" stroke="black" cx="994" cy="-66.8" rx="56.77" ry="18"/>
<text text-anchor="middle" x="994" y="-62.6" font-family="Times,serif" font-size="14.00">JwtStrategy</text>
</g>
<!-- JwtStrategy&#45;&gt;AuthModule -->
<g id="edge8" class="edge">
<title>JwtStrategy&#45;&gt;AuthModule</title>
<path fill="none" stroke="black" d="M994,-85.01C994,-121.44 994,-199.8 994,-199.8 994,-199.8 420.59,-199.8 420.59,-199.8"/>
<polygon fill="black" stroke="black" points="420.59,-196.3 410.59,-199.8 420.59,-203.3 420.59,-196.3"/>
</g>
<!-- LocalStrategy -->
<g id="node9" class="node">
<title>LocalStrategy</title>
<ellipse fill="#fdb462" stroke="black" cx="1134" cy="-66.8" rx="65.4" ry="18"/>
<text text-anchor="middle" x="1134" y="-62.6" font-family="Times,serif" font-size="14.00">LocalStrategy</text>
</g>
<!-- LocalStrategy&#45;&gt;AuthModule -->
<g id="edge9" class="edge">
<title>LocalStrategy&#45;&gt;AuthModule</title>
<path fill="none" stroke="black" d="M1134,-84.97C1134,-122.65 1134,-205.8 1134,-205.8 1134,-205.8 420.71,-205.8 420.71,-205.8"/>
<polygon fill="black" stroke="black" points="420.71,-202.3 410.71,-205.8 420.71,-209.3 420.71,-202.3"/>
</g>
<!-- UsersService -->
<g id="node10" class="node">
<title>UsersService</title>
<ellipse fill="#fdb462" stroke="black" cx="857" cy="-66.8" rx="61.97" ry="18"/>
<text text-anchor="middle" x="857" y="-62.6" font-family="Times,serif" font-size="14.00">UsersService</text>
</g>
<!-- UsersService&#45;&gt;AuthModule -->
<g id="edge11" class="edge">
<title>UsersService&#45;&gt;AuthModule</title>
<path fill="none" stroke="black" d="M877.66,-83.93C877.66,-118.59 877.66,-193.8 877.66,-193.8 877.66,-193.8 420.98,-193.8 420.98,-193.8"/>
<polygon fill="black" stroke="black" points="420.98,-190.3 410.98,-193.8 420.98,-197.3 420.98,-190.3"/>
</g>
<!-- UsersService&#45;&gt;UsersModule -->
<g id="edge17" class="edge">
<title>UsersService&#45;&gt;UsersModule</title>
<path fill="none" stroke="black" d="M836.34,-83.96C836.34,-104.1 836.34,-134.8 836.34,-134.8 836.34,-134.8 421.05,-134.8 421.05,-134.8"/>
<polygon fill="black" stroke="black" points="421.05,-131.3 411.05,-134.8 421.05,-138.3 421.05,-131.3"/>
</g>
<!-- PdfService -->
<g id="node11" class="node">
<title>PdfService</title>
<ellipse fill="#fdb462" stroke="black" cx="702" cy="-66.8" rx="53.32" ry="18"/>
<text text-anchor="middle" x="702" y="-62.6" font-family="Times,serif" font-size="14.00">PdfService</text>
</g>
<!-- PdfService&#45;&gt;TaskModule -->
<g id="edge12" class="edge">
<title>PdfService&#45;&gt;TaskModule</title>
<path fill="none" stroke="black" d="M702,-84.93C702,-95.51 702,-106.8 702,-106.8 702,-106.8 298.33,-106.8 298.33,-106.8 298.33,-106.8 298.33,-107.78 298.33,-107.78"/>
<polygon fill="black" stroke="black" points="294.83,-106.59 298.33,-116.59 301.83,-106.59 294.83,-106.59"/>
</g>
<!-- TaskQueueService -->
<g id="node12" class="node">
<title>TaskQueueService</title>
<ellipse fill="#fdb462" stroke="black" cx="547" cy="-66.8" rx="83.94" ry="18"/>
<text text-anchor="middle" x="547" y="-62.6" font-family="Times,serif" font-size="14.00">TaskQueueService</text>
</g>
<!-- TaskQueueService&#45;&gt;TaskModule -->
<g id="edge14" class="edge">
<title>TaskQueueService&#45;&gt;TaskModule</title>
<path fill="none" stroke="black" d="M547,-85C547,-90.83 547,-95.8 547,-95.8 547,-95.8 295.28,-95.8 295.28,-95.8 295.28,-95.8 295.28,-106.67 295.28,-106.67"/>
<polygon fill="black" stroke="black" points="291.78,-106.67 295.28,-116.67 298.78,-106.67 291.78,-106.67"/>
</g>
</g>
</svg>
