<?xml version="1.0" encoding="UTF-8" standalone="no"?>
<!DOCTYPE svg PUBLIC "-//W3C//DTD SVG 1.1//EN"
 "http://www.w3.org/Graphics/SVG/1.1/DTD/svg11.dtd">
<!-- Generated by graphviz version 5.0.0 (20220707.1540)
 -->
<!-- Title: dependencies Pages: 1 -->
<svg width="500pt" height="174pt"
 viewBox="0.00 0.00 500.00 173.80" xmlns="http://www.w3.org/2000/svg" xmlns:xlink="http://www.w3.org/1999/xlink">
<g id="graph0" class="graph" transform="scale(1 1) rotate(0) translate(4 169.8)">
<title>dependencies</title>
<polygon fill="white" stroke="transparent" points="-4,4 -4,-169.8 496,-169.8 496,4 -4,4"/>
<text text-anchor="middle" x="246" y="-8.2" font-family="sans-serif" font-size="14.00">dependencies</text>
<g id="clust1" class="cluster">
<title>cluster_TaskModule</title>
<polygon fill="none" stroke="black" stroke-dasharray="1,5" points="8,-32.8 8,-157.8 484,-157.8 484,-32.8 8,-32.8"/>
</g>
<g id="clust6" class="cluster">
<title>cluster_TaskModule_providers</title>
<polygon fill="none" stroke="black" points="16,-40.8 16,-92.8 476,-92.8 476,-40.8 16,-40.8"/>
</g>
<!-- PdfService -->
<g id="node1" class="node">
<title>PdfService</title>
<ellipse fill="#fdb462" stroke="black" cx="415" cy="-66.8" rx="53.32" ry="18"/>
<text text-anchor="middle" x="415" y="-62.6" font-family="Times,serif" font-size="14.00">PdfService</text>
</g>
<!-- TaskModule -->
<g id="node4" class="node">
<title>TaskModule</title>
<polygon fill="#8dd3c7" stroke="black" points="320.27,-149.8 317.27,-153.8 296.27,-153.8 293.27,-149.8 233.73,-149.8 233.73,-113.8 320.27,-113.8 320.27,-149.8"/>
<text text-anchor="middle" x="277" y="-127.6" font-family="Times,serif" font-size="14.00">TaskModule</text>
</g>
<!-- PdfService&#45;&gt;TaskModule -->
<g id="edge1" class="edge">
<title>PdfService&#45;&gt;TaskModule</title>
<path fill="none" stroke="black" d="M415,-84.91C415,-104.14 415,-131.8 415,-131.8 415,-131.8 330.29,-131.8 330.29,-131.8"/>
<polygon fill="black" stroke="black" points="330.29,-128.3 320.29,-131.8 330.29,-135.3 330.29,-128.3"/>
</g>
<!-- PrismaService -->
<g id="node2" class="node">
<title>PrismaService</title>
<ellipse fill="#fdb462" stroke="black" cx="277" cy="-66.8" rx="66.64" ry="18"/>
<text text-anchor="middle" x="277" y="-62.6" font-family="Times,serif" font-size="14.00">PrismaService</text>
</g>
<!-- PrismaService&#45;&gt;TaskModule -->
<g id="edge2" class="edge">
<title>PrismaService&#45;&gt;TaskModule</title>
<path fill="none" stroke="black" d="M277,-84.91C277,-84.91 277,-103.79 277,-103.79"/>
<polygon fill="black" stroke="black" points="273.5,-103.79 277,-113.79 280.5,-103.79 273.5,-103.79"/>
</g>
<!-- TaskQueueService -->
<g id="node3" class="node">
<title>TaskQueueService</title>
<ellipse fill="#fdb462" stroke="black" cx="108" cy="-66.8" rx="83.94" ry="18"/>
<text text-anchor="middle" x="108" y="-62.6" font-family="Times,serif" font-size="14.00">TaskQueueService</text>
</g>
<!-- TaskQueueService&#45;&gt;TaskModule -->
<g id="edge3" class="edge">
<title>TaskQueueService&#45;&gt;TaskModule</title>
<path fill="none" stroke="black" d="M108,-84.91C108,-104.14 108,-131.8 108,-131.8 108,-131.8 223.48,-131.8 223.48,-131.8"/>
<polygon fill="black" stroke="black" points="223.48,-135.3 233.48,-131.8 223.48,-128.3 223.48,-135.3"/>
</g>
</g>
</svg>
