<?xml version="1.0" encoding="UTF-8" standalone="no"?>
<!DOCTYPE svg PUBLIC "-//W3C//DTD SVG 1.1//EN"
 "http://www.w3.org/Graphics/SVG/1.1/DTD/svg11.dtd">
<!-- Generated by graphviz version 5.0.0 (20220707.1540)
 -->
<!-- Title: dependencies Pages: 1 -->
<svg width="864pt" height="174pt"
 viewBox="0.00 0.00 864.00 173.80" xmlns="http://www.w3.org/2000/svg" xmlns:xlink="http://www.w3.org/1999/xlink">
<g id="graph0" class="graph" transform="scale(1 1) rotate(0) translate(4 169.8)">
<title>dependencies</title>
<polygon fill="white" stroke="transparent" points="-4,4 -4,-169.8 860,-169.8 860,4 -4,4"/>
<text text-anchor="middle" x="428" y="-8.2" font-family="sans-serif" font-size="14.00">dependencies</text>
<g id="clust1" class="cluster">
<title>cluster_AuthModule</title>
<polygon fill="none" stroke="black" stroke-dasharray="1,5" points="8,-32.8 8,-157.8 848,-157.8 848,-32.8 8,-32.8"/>
</g>
<g id="clust6" class="cluster">
<title>cluster_AuthModule_providers</title>
<polygon fill="none" stroke="black" points="132,-40.8 132,-92.8 840,-92.8 840,-40.8 132,-40.8"/>
</g>
<g id="clust3" class="cluster">
<title>cluster_AuthModule_imports</title>
<polygon fill="none" stroke="black" points="16,-40.8 16,-92.8 124,-92.8 124,-40.8 16,-40.8"/>
</g>
<!-- UsersModule -->
<g id="node1" class="node">
<title>UsersModule</title>
<polygon fill="#8dd3c7" stroke="black" points="115.94,-84.8 112.94,-88.8 91.94,-88.8 88.94,-84.8 24.06,-84.8 24.06,-48.8 115.94,-48.8 115.94,-84.8"/>
<text text-anchor="middle" x="70" y="-62.6" font-family="Times,serif" font-size="14.00">UsersModule</text>
</g>
<!-- AuthModule -->
<g id="node2" class="node">
<title>AuthModule</title>
<polygon fill="#8dd3c7" stroke="black" points="467.55,-149.8 464.55,-153.8 443.55,-153.8 440.55,-149.8 380.45,-149.8 380.45,-113.8 467.55,-113.8 467.55,-149.8"/>
<text text-anchor="middle" x="424" y="-127.6" font-family="Times,serif" font-size="14.00">AuthModule</text>
</g>
<!-- UsersModule&#45;&gt;AuthModule -->
<g id="edge1" class="edge">
<title>UsersModule&#45;&gt;AuthModule</title>
<path fill="none" stroke="black" d="M70,-85.08C70,-106.12 70,-137.8 70,-137.8 70,-137.8 370.24,-137.8 370.24,-137.8"/>
<polygon fill="black" stroke="black" points="370.24,-141.3 380.24,-137.8 370.24,-134.3 370.24,-141.3"/>
</g>
<!-- AuthService -->
<g id="node3" class="node">
<title>AuthService</title>
<ellipse fill="#fdb462" stroke="black" cx="773" cy="-66.8" rx="59.11" ry="18"/>
<text text-anchor="middle" x="773" y="-62.6" font-family="Times,serif" font-size="14.00">AuthService</text>
</g>
<!-- AuthService&#45;&gt;AuthModule -->
<g id="edge2" class="edge">
<title>AuthService&#45;&gt;AuthModule</title>
<path fill="none" stroke="black" d="M773,-85.08C773,-106.12 773,-137.8 773,-137.8 773,-137.8 477.85,-137.8 477.85,-137.8"/>
<polygon fill="black" stroke="black" points="477.85,-134.3 467.85,-137.8 477.85,-141.3 477.85,-134.3"/>
</g>
<!-- JwtStrategy -->
<g id="node4" class="node">
<title>JwtStrategy</title>
<ellipse fill="#fdb462" stroke="black" cx="639" cy="-66.8" rx="56.77" ry="18"/>
<text text-anchor="middle" x="639" y="-62.6" font-family="Times,serif" font-size="14.00">JwtStrategy</text>
</g>
<!-- JwtStrategy&#45;&gt;AuthModule -->
<g id="edge3" class="edge">
<title>JwtStrategy&#45;&gt;AuthModule</title>
<path fill="none" stroke="black" d="M639,-84.82C639,-102.17 639,-125.8 639,-125.8 639,-125.8 477.77,-125.8 477.77,-125.8"/>
<polygon fill="black" stroke="black" points="477.77,-122.3 467.77,-125.8 477.77,-129.3 477.77,-122.3"/>
</g>
<!-- LocalStrategy -->
<g id="node5" class="node">
<title>LocalStrategy</title>
<ellipse fill="#fdb462" stroke="black" cx="499" cy="-66.8" rx="65.4" ry="18"/>
<text text-anchor="middle" x="499" y="-62.6" font-family="Times,serif" font-size="14.00">LocalStrategy</text>
</g>
<!-- LocalStrategy&#45;&gt;AuthModule -->
<g id="edge4" class="edge">
<title>LocalStrategy&#45;&gt;AuthModule</title>
<path fill="none" stroke="black" d="M450.79,-79.03C450.79,-79.03 450.79,-103.48 450.79,-103.48"/>
<polygon fill="black" stroke="black" points="447.29,-103.48 450.79,-113.48 454.29,-103.48 447.29,-103.48"/>
</g>
<!-- PrismaService -->
<g id="node6" class="node">
<title>PrismaService</title>
<ellipse fill="#fdb462" stroke="black" cx="349" cy="-66.8" rx="66.64" ry="18"/>
<text text-anchor="middle" x="349" y="-62.6" font-family="Times,serif" font-size="14.00">PrismaService</text>
</g>
<!-- PrismaService&#45;&gt;AuthModule -->
<g id="edge5" class="edge">
<title>PrismaService&#45;&gt;AuthModule</title>
<path fill="none" stroke="black" d="M398.02,-79.33C398.02,-79.33 398.02,-103.65 398.02,-103.65"/>
<polygon fill="black" stroke="black" points="394.52,-103.65 398.02,-113.65 401.52,-103.65 394.52,-103.65"/>
</g>
<!-- UsersService -->
<g id="node7" class="node">
<title>UsersService</title>
<ellipse fill="#fdb462" stroke="black" cx="202" cy="-66.8" rx="61.97" ry="18"/>
<text text-anchor="middle" x="202" y="-62.6" font-family="Times,serif" font-size="14.00">UsersService</text>
</g>
<!-- UsersService&#45;&gt;AuthModule -->
<g id="edge6" class="edge">
<title>UsersService&#45;&gt;AuthModule</title>
<path fill="none" stroke="black" d="M202,-84.82C202,-102.17 202,-125.8 202,-125.8 202,-125.8 370.4,-125.8 370.4,-125.8"/>
<polygon fill="black" stroke="black" points="370.4,-129.3 380.4,-125.8 370.4,-122.3 370.4,-129.3"/>
</g>
</g>
</svg>
